<?xml version="1.0" encoding="UTF-8"?>
<svg xmlns="http://www.w3.org/2000/svg" width="48" height="48" viewBox="0 0 48 48">
  <title>Google G Logo</title>
  <defs/>
  <!-- This is a vector approximation of the Google "G" icon for UI use -->
  <path fill="#FFC107" d="M43.6 20.5h-1.8V20H24v8h11.3C33.6 32.7 29.3 36 24 36c-6.6 0-12-5.4-12-12s5.4-12 12-12c3.0 0 5.7 1.1 7.8 2.9l5.7-5.7C34.4 6.6 29.5 4 24 4 12.9 4 4 12.9 4 24s8.9 20 20 20c11.1 0 19.4-8.9 19.4-20 0-1.3-.1-2.7-.4-3.5z"/>
  <path fill="#FF3D00" d="M6.3 14.7l6.6 4.8C14.5 16 18.9 12 24 12c3.0 0 5.7 1.1 7.8 2.9l5.7-5.7C34.4 6.6 29.5 4 24 4 15.5 4 8.3 8.5 6.3 14.7z"/>
  <path fill="#4CAF50" d="M24 44c5.2 0 10-2 13.5-5.2l-6.2-5.1C29.2 35.7 26.8 36 24 36c-5.3 0-9.7-3.4-11.3-8.1l-6.6 5.1C8.1 39.5 15.5 44 24 44z"/>
  <path fill="#1976D2" d="M43.6 20.5h-1.8V20H24v8h11.3c-1.7 4.7-6 8-11.3 8-5.3 0-9.7-3.4-11.3-8.1l-6.6 5.1C8.1 39.5 15.5 44 24 44c11.1 0 19.4-8.9 19.4-20 0-1.3-.1-2.7-.4-3.5z"/>
</svg>

